<?xml version="1.0" encoding="UTF-8" standalone="no"?>
<!DOCTYPE svg PUBLIC "-//W3C//DTD SVG 1.1//EN" "http://www.w3.org/Graphics/SVG/1.1/DTD/svg11.dtd">
<svg width="100%" height="100%" viewBox="0 0 512 512" version="1.1" xmlns="http://www.w3.org/2000/svg" xmlns:xlink="http://www.w3.org/1999/xlink" xml:space="preserve" xmlns:serif="http://www.serif.com/" style="fill-rule:evenodd;clip-rule:evenodd;stroke-linecap:round;stroke-linejoin:round;stroke-miterlimit:1.5;">
    <g transform="matrix(1.193811,0,0,1.156358,-68.154327,-18.736716)">
        <g id="L">
            <g transform="matrix(-2.488135,0,0,-3.827631,546.307417,386.77097)">
                <path d="M83.153,47.843L83.153,83.312L110.435,65.578L83.153,47.843Z" style="fill:rgb(0,181,216);"/>
            </g>
            <g transform="matrix(-2.488135,0,0,-3.827631,546.307417,522.535472)">
                <path d="M83.153,47.843L83.153,83.312L110.435,65.578L83.153,47.843Z" style="fill:rgb(0,181,216);"/>
            </g>
            <g transform="matrix(2.488135,0,0,3.827631,64.632842,-47.359715)">
                <path d="M83.153,47.843L83.153,83.312L110.435,65.578L83.153,47.843Z" style="fill:rgb(0,181,216);"/>
            </g>
            <g transform="matrix(2.488135,0,0,3.827631,64.632842,88.404787)">
                <path d="M83.153,47.843L83.153,83.312L110.435,65.578L83.153,47.843Z" style="fill:rgb(0,181,216);"/>
            </g>
            <g transform="matrix(0,-2.488135,3.827631,0,88.404787,614.189668)">
                <path d="M83.153,47.843L83.153,83.312L110.435,65.578L83.153,47.843Z" style="fill:rgb(0,181,216);"/>
            </g>
            <g transform="matrix(0,2.488135,3.827631,-0,156.287038,132.515093)">
                <path d="M83.153,47.843L83.153,83.312L110.435,65.578L83.153,47.843Z" style="fill:rgb(0,181,216);"/>
            </g>
        </g>
        <g>
            <g transform="matrix(2.488135,0,0,3.827631,-139.013911,-115.241966)">
                <path d="M83.153,47.843L83.153,83.312L110.435,65.578L83.153,47.843Z" style="fill:rgb(11,197,234);stroke:rgb(11,197,234);stroke-width:0.01px;"/>
            </g>
            <g transform="matrix(2.488135,0,0,3.827631,-139.013911,20.522536)">
                <path d="M83.153,47.843L83.153,83.312L110.435,65.578L83.153,47.843Z" style="fill:rgb(11,197,234);stroke:rgb(11,197,234);stroke-width:0.01px;"/>
            </g>
            <g transform="matrix(2.488135,0,0,3.827631,-71.13166,-47.359715)">
                <path d="M83.153,47.843L83.153,83.312L110.435,65.578L83.153,47.843Z" style="fill:rgb(11,197,234);stroke:rgb(11,197,234);stroke-width:0.01px;"/>
            </g>
            <g transform="matrix(2.488135,0,0,3.827631,-3.249409,20.522536)">
                <path d="M83.153,47.843L83.153,83.312L110.435,65.578L83.153,47.843Z" style="fill:rgb(11,197,234);stroke:rgb(11,197,234);stroke-width:0.01px;"/>
            </g>
            <g transform="matrix(2.488135,0,0,3.827631,-3.249409,-115.241966)">
                <path d="M83.153,47.843L83.153,83.312L110.435,65.578L83.153,47.843Z" style="fill:rgb(11,197,234);stroke:rgb(11,197,234);stroke-width:0.01px;"/>
            </g>
            <g transform="matrix(-2.488135,0,0,-3.827631,342.660664,454.653221)">
                <path d="M83.153,47.843L83.153,83.312L110.435,65.578L83.153,47.843Z" style="fill:rgb(11,197,234);stroke:rgb(11,197,234);stroke-width:0.01px;"/>
            </g>
            <g transform="matrix(-2.488135,0,0,-3.827631,342.660664,590.417723)">
                <path d="M83.153,47.843L83.153,83.312L110.435,65.578L83.153,47.843Z" style="fill:rgb(11,197,234);stroke:rgb(11,197,234);stroke-width:0.01px;"/>
            </g>
            <g transform="matrix(-2.488135,0,0,-3.827631,410.542915,522.535472)">
                <path d="M83.153,47.843L83.153,83.312L110.435,65.578L83.153,47.843Z" style="fill:rgb(11,197,234);stroke:rgb(11,197,234);stroke-width:0.01px;"/>
            </g>
            <g transform="matrix(-2.488135,0,0,-3.827631,478.425166,590.417723)">
                <path d="M83.153,47.843L83.153,83.312L110.435,65.578L83.153,47.843Z" style="fill:rgb(11,197,234);stroke:rgb(11,197,234);stroke-width:0.01px;"/>
            </g>
            <g transform="matrix(-2.488135,0,0,-3.827631,478.425166,454.653221)">
                <path d="M83.153,47.843L83.153,83.312L110.435,65.578L83.153,47.843Z" style="fill:rgb(11,197,234);stroke:rgb(11,197,234);stroke-width:0.01px;"/>
            </g>
        </g>
    </g>
</svg>
